<?xml version="1.0" encoding="iso-8859-1"?>
<!-- Generator: Adobe Illustrator 16.0.0, SVG Export Plug-In . SVG Version: 6.00 Build 0)  -->
<!DOCTYPE svg PUBLIC "-//W3C//DTD SVG 1.1//EN" "http://www.w3.org/Graphics/SVG/1.1/DTD/svg11.dtd">
<svg version="1.1" xmlns="http://www.w3.org/2000/svg" xmlns:xlink="http://www.w3.org/1999/xlink" x="0px" y="0px" width="64" height="64" viewBox="0 0 512 512" style="enable-background:new 0 0 512 512;" xml:space="preserve">
<g id="_x36_44_x2C__Copy_x2C__Documents_x2C__Duplicate">
	<g>
		<path d="M436,391c5.522,0,10-4.478,10-10V41c0-5.523-4.478-10-10-10H146c-5.523,0-10,4.477-10,10v40h-30c-5.523,0-10,4.477-10,10
			v30H66c-5.523,0-10,4.477-10,10v330c0,5.522,4.477,10,10,10h280c5.522,0,10-4.478,10-10v-30h30c5.522,0,10-4.478,10-10v-30H436z
			 M156,371v-20h270v20H156z M156,51h230v70c0,5.523,4.478,10,10,10s10-4.477,10-10V51h20v280H156V51z M336,451H76V141h20v280
			c0,5.522,4.477,10,10,10h230V451z M376,411H116V101h20v280c0,5.522,4.477,10,10,10h230V411z" fill="white"/>
		<circle cx="386" cy="471" r="10" fill="white"/>
		<circle cx="466" cy="81" r="10" fill="white"/>
		<circle cx="116" cy="51" r="10" fill="white"/>
		<circle cx="36" cy="291" r="10" fill="white"/>
		<circle cx="326" cy="281" r="10" fill="white"/>
		<path d="M196,131h130c5.522,0,10-4.477,10-10s-4.478-10-10-10H196c-5.523,0-10,4.477-10,10S190.477,131,196,131z" fill="white"/>
		<path d="M196,171h170c5.522,0,10-4.477,10-10s-4.478-10-10-10H196c-5.523,0-10,4.477-10,10S190.477,171,196,171z" fill="white"/>
		<path d="M196,211h190c5.522,0,10-4.477,10-10s-4.478-10-10-10H196c-5.523,0-10,4.477-10,10S190.477,211,196,211z" fill="white"/>
		<path d="M196,251h150c5.522,0,10-4.477,10-10s-4.478-10-10-10H196c-5.523,0-10,4.477-10,10S190.477,251,196,251z" fill="white"/>
		<path d="M196,291h100c5.522,0,10-4.478,10-10s-4.478-10-10-10H196c-5.523,0-10,4.478-10,10S190.477,291,196,291z" fill="white"/>
		<path d="M56,101c16.542,0,30-13.458,30-30S72.542,41,56,41S26,54.458,26,71S39.458,101,56,101z M56,61c5.514,0,10,4.486,10,10
			s-4.486,10-10,10s-10-4.486-10-10S50.486,61,56,61z"  fill="white"/>
		<path d="M451,401c-19.299,0-35,15.701-35,35s15.701,35,35,35s35-15.701,35-35S470.299,401,451,401z M451,451
			c-8.271,0-15-6.729-15-15s6.729-15,15-15s15,6.729,15,15S459.271,451,451,451z" fill="white"/>
	</g>
</g>
<g id="Layer_1">
</g>
</svg>
